<?xml version="1.0" standalone="no"?>
<!DOCTYPE svg PUBLIC "-//W3C//DTD SVG 20010904//EN"
 "http://www.w3.org/TR/2001/REC-SVG-20010904/DTD/svg10.dtd">
<svg version="1.0" xmlns="http://www.w3.org/2000/svg"
 width="500.000000pt" height="500.000000pt" viewBox="0 0 500.000000 500.000000"
 preserveAspectRatio="xMidYMid meet">

<g transform="translate(0.000000,500.000000) scale(0.100000,-0.100000)"
fill="#000000" stroke="none">
<path d="M2457 4830 c-100 -18 -177 -121 -177 -236 0 -36 6 -80 14 -99 l14
-34 -624 -413 c-344 -227 -632 -418 -642 -424 -21 -15 -29 -227 -33 -894 -3
-455 -2 -477 16 -515 19 -37 68 -68 745 -475 l725 -435 -67 -3 -68 -3 0 -64 0
-65 70 0 70 0 0 66 c0 60 2 65 20 59 14 -4 192 108 697 440 373 246 690 458
705 472 60 57 60 57 70 769 l10 651 -22 52 c-13 28 -35 61 -49 74 -15 12 -298
180 -629 372 -537 312 -601 352 -594 370 4 11 7 56 7 101 0 72 -3 86 -30 130
-50 80 -137 120 -228 104z m234 -427 c100 -58 183 -112 186 -120 3 -8 -2 -22
-11 -32 -31 -34 -320 -220 -352 -227 -27 -5 -54 8 -210 104 -129 79 -179 115
-179 128 0 28 336 254 377 254 5 0 90 -48 189 -107z m505 -294 c140 -84 184
-115 184 -130 0 -15 -44 -49 -167 -129 -93 -61 -182 -113 -199 -116 -26 -5
-53 8 -175 81 -185 111 -219 135 -219 151 0 8 75 64 167 125 139 94 183 119
221 128 2 1 87 -49 188 -110z m-516 -296 c230 -137 222 -131 211 -151 -16 -29
-324 -232 -361 -238 -31 -4 -56 8 -217 106 -135 83 -180 115 -176 126 6 17
287 208 337 230 17 7 38 13 46 14 8 0 80 -39 160 -87z m-938 -49 c98 -59 178
-112 178 -119 0 -6 -10 -21 -22 -32 -48 -43 -297 -202 -334 -213 -39 -12 -40
-11 -204 85 -180 106 -204 124 -195 146 5 14 186 140 294 206 30 18 66 33 80
33 14 0 103 -47 203 -106z m1611 -252 c70 -41 126 -77 124 -79 -5 -4 -306 174
-322 190 -11 12 15 -3 198 -111z m601 92 c3 -9 6 -79 6 -157 0 -115 -3 -149
-18 -177 -13 -27 -59 -63 -200 -158 -100 -67 -187 -120 -192 -117 -6 4 -10 78
-10 175 0 161 1 170 23 194 26 30 356 256 373 256 7 0 15 -7 18 -16z m-738
-115 c101 -60 184 -114 184 -118 0 -14 -45 -49 -180 -138 -160 -107 -171 -113
-204 -113 -35 0 -377 210 -374 230 2 8 75 64 163 123 134 90 176 114 223 126
2 1 87 -49 188 -110z m-1023 -6 c209 -124 217 -130 210 -149 -8 -21 -327 -231
-363 -239 -25 -6 -57 10 -215 105 -102 61 -185 118 -185 125 0 8 75 65 167
126 139 94 183 119 221 128 2 1 77 -42 165 -96z m-897 -64 c87 -55 171 -114
187 -130 l27 -30 -2 -171 c-2 -112 -7 -173 -14 -175 -15 -5 -344 202 -376 238
l-28 29 0 170 0 170 23 0 c13 0 95 -45 183 -101z m2178 -152 c3 -12 6 -78 6
-147 0 -183 1 -181 -208 -324 -94 -64 -179 -116 -190 -116 -11 0 -23 7 -26 16
-3 9 -6 78 -6 154 0 196 -6 186 213 331 98 65 183 116 191 113 8 -3 17 -15 20
-27z m-758 -98 c101 -62 184 -115 184 -120 0 -15 -35 -42 -183 -141 -87 -58
-163 -102 -183 -105 -30 -5 -55 7 -214 102 -99 59 -183 111 -185 115 -9 14 23
39 170 137 133 88 189 120 219 122 5 1 91 -49 192 -110z m1235 -66 c16 -42 7
-281 -11 -318 -18 -36 -364 -277 -386 -268 -11 4 -14 36 -14 167 0 136 3 165
18 189 17 27 345 255 370 256 7 1 17 -11 23 -26z m-2662 -144 c86 -56 171
-117 189 -135 l32 -34 0 -170 c0 -165 -1 -170 -21 -170 -34 0 -367 217 -384
250 -11 22 -15 67 -15 189 0 158 2 167 34 170 5 1 79 -45 165 -100z m978 -128
c88 -56 171 -114 184 -127 23 -25 24 -30 24 -197 0 -151 -2 -172 -16 -175 -27
-5 -367 215 -384 249 -11 21 -15 67 -15 187 0 87 3 162 7 166 13 13 35 1 200
-103z m-472 -174 c205 -132 200 -123 200 -325 0 -125 -3 -154 -15 -162 -8 -5
-17 -10 -20 -10 -17 0 -347 220 -364 243 -19 25 -21 45 -24 172 -4 154 3 186
41 184 12 0 94 -46 182 -102z m2143 11 c8 -8 12 -56 12 -150 0 -204 6 -194
-213 -339 -142 -95 -182 -117 -193 -108 -11 9 -14 47 -14 170 l0 159 33 34
c30 32 340 246 356 246 4 0 12 -5 19 -12z m-2656 -164 c84 -53 168 -112 186
-132 l32 -35 0 -168 c0 -106 -4 -170 -10 -174 -13 -8 -329 187 -371 228 l-29
29 0 174 c0 167 1 174 20 174 11 0 88 -43 172 -96z m979 -129 c92 -58 179
-120 194 -136 25 -30 25 -33 25 -200 0 -163 -1 -169 -20 -169 -26 0 -365 215
-385 243 -12 17 -15 58 -15 188 0 160 2 179 23 179 5 0 85 -47 178 -105z m723
89 c3 -9 6 -79 6 -157 -1 -154 -9 -185 -61 -226 -73 -57 -325 -221 -340 -221
-26 0 -31 42 -24 202 l7 146 32 31 c45 44 337 241 357 241 9 0 20 -7 23 -16z
m479 -174 c5 -19 7 -87 5 -150 -7 -167 -7 -168 -210 -306 -92 -63 -174 -114
-182 -114 -28 0 -36 37 -36 162 0 142 9 184 47 220 56 52 328 229 347 226 13
-2 23 -15 29 -38z m-1691 -97 c126 -79 216 -143 173 -121 -38 19 -355 210
-355 213 0 18 49 -7 182 -92z m1206 -358 c2 -144 0 -163 -17 -192 -13 -20 -78
-71 -173 -135 -170 -115 -209 -138 -220 -131 -5 2 -8 82 -8 177 l0 172 29 28
c55 53 346 246 366 244 19 -3 20 -12 23 -163z m-720 50 c179 -116 175 -113
195 -152 23 -45 25 -324 2 -343 -12 -10 -45 7 -186 96 -95 60 -182 122 -193
137 -19 25 -21 45 -24 181 -3 134 -2 155 13 170 10 9 24 15 32 12 8 -3 80 -49
161 -101z"/>
<path d="M2610 900 l0 -401 260 3 260 3 27 28 28 27 3 203 c2 130 0 215 -8
240 -19 64 -38 70 -246 75 l-184 5 0 108 0 109 -70 0 -70 0 0 -400z m425 -110
l0 -145 -142 -3 -143 -3 0 144 c0 79 3 147 7 151 4 3 68 5 142 4 l136 -3 0
-145z"/>
<path d="M3290 1235 l0 -65 75 0 75 0 0 65 0 65 -75 0 -75 0 0 -65z"/>
<path d="M877 1164 c-4 -4 -7 -155 -7 -336 l0 -328 75 0 75 0 0 220 0 220 70
0 70 0 0 70 0 70 -69 0 -70 0 -3 43 -3 42 -65 3 c-36 2 -69 0 -73 -4z"/>
<path d="M1247 1073 c-4 -3 -7 -134 -7 -290 l0 -283 460 0 c504 0 516 1 538
56 9 20 12 102 10 274 l-3 245 -67 3 -68 3 0 -205 c0 -112 -3 -211 -6 -220 -5
-14 -28 -16 -145 -16 l-139 0 -2 218 -3 217 -70 0 -70 0 -3 -217 -2 -218 -145
0 -145 0 0 220 0 220 -63 0 c-35 0 -67 -3 -70 -7z"/>
<path d="M2360 790 l0 -290 70 0 70 0 0 290 0 290 -70 0 -70 0 0 -290z"/>
<path d="M3297 1074 c-4 -4 -7 -135 -7 -291 l0 -283 75 0 75 0 -2 288 -3 287
-65 3 c-36 2 -69 0 -73 -4z"/>
<path d="M3557 1073 c-13 -13 -7 -237 7 -262 11 -20 11 -28 0 -50 -9 -18 -14
-64 -14 -143 l0 -118 70 0 70 0 0 93 c0 131 -4 128 155 125 l130 -3 3 -107 3
-108 75 0 76 0 -3 128 c-3 84 -8 134 -16 144 -11 12 -10 21 2 46 12 23 15 57
13 144 l-3 113 -70 0 -70 0 -5 -105 -5 -105 -136 -3 c-160 -3 -149 -13 -149
131 l0 87 -63 0 c-35 0 -67 -3 -70 -7z"/>
</g>
</svg>
